<svg width="30" height="30" viewBox="0 0 30 30" fill="none" xmlns="http://www.w3.org/2000/svg">
<path d="M3.75 13.75H13.75V3.75H3.75V13.75ZM6.25 6.25H11.25V11.25H6.25V6.25ZM3.75 26.25H13.75V16.25H3.75V26.25ZM6.25 18.75H11.25V23.75H6.25V18.75ZM16.25 3.75V13.75H26.25V3.75H16.25ZM23.75 11.25H18.75V6.25H23.75V11.25ZM16.2625 16.25H18.7625V18.75H16.2625V16.25ZM18.7625 18.75H21.2625V21.25H18.7625V18.75ZM16.2625 21.25H18.7625V23.75H16.2625V21.25ZM21.2625 21.25H23.7625V23.75H21.2625V21.25ZM23.7625 23.75H26.2625V26.25H23.7625V23.75ZM18.7625 23.75H21.2625V26.25H18.7625V23.75ZM21.2625 16.25H23.7625V18.75H21.2625V16.25ZM23.7625 18.75H26.2625V21.25H23.7625V18.75Z" fill="white"/>
</svg>
