<svg width="30" height="30" viewBox="0 0 30 30" fill="none" xmlns="http://www.w3.org/2000/svg">
<path d="M13.125 9.375H11.25V20.625H13.125V9.375ZM18.75 9.375H16.875V20.625H18.75V9.375Z" fill="#292D3D"/>
<path d="M15 3.75C17.225 3.75 19.4001 4.4098 21.2502 5.64597C23.1002 6.88213 24.5422 8.63914 25.3937 10.6948C26.2451 12.7505 26.4679 15.0125 26.0338 17.1948C25.5998 19.3771 24.5283 21.3816 22.955 22.955C21.3816 24.5283 19.3771 25.5998 17.1948 26.0338C15.0125 26.4679 12.7505 26.2451 10.6948 25.3936C8.63915 24.5422 6.88214 23.1002 5.64597 21.2502C4.40981 19.4001 3.75001 17.225 3.75001 15C3.75001 12.0163 4.93527 9.15483 7.04505 7.04505C9.15484 4.93526 12.0163 3.75 15 3.75ZM15 1.875C12.4041 1.875 9.86654 2.64477 7.70815 4.08696C5.54975 5.52916 3.86749 7.579 2.87409 9.97728C1.88069 12.3756 1.62077 15.0146 2.1272 17.5606C2.63363 20.1066 3.88367 22.4452 5.71923 24.2808C7.55479 26.1163 9.89345 27.3664 12.4394 27.8728C14.9854 28.3792 17.6244 28.1193 20.0227 27.1259C22.421 26.1325 24.4708 24.4503 25.913 22.2919C27.3552 20.1335 28.125 17.5959 28.125 15C28.125 11.519 26.7422 8.18064 24.2808 5.71922C21.8194 3.25781 18.481 1.875 15 1.875Z" fill="#292D3D"/>
</svg>
