<svg width="40" height="40" viewBox="0 0 40 40" fill="none" xmlns="http://www.w3.org/2000/svg">
<path opacity="0.2" d="M37.5 20L30 26.25H10L2.5 20L10 13.75H30L37.5 20Z" fill="#292D3D"/>
<path d="M10.8 14.7109L4.45312 20L10.8 25.2891C10.9297 25.3929 11.0375 25.5216 11.1169 25.6677C11.1963 25.8137 11.2458 25.9741 11.2625 26.1394C11.2792 26.3048 11.2627 26.4718 11.2141 26.6308C11.1654 26.7897 11.0855 26.9374 10.9792 27.065C10.8728 27.1927 10.742 27.2979 10.5944 27.3745C10.4469 27.451 10.2855 27.4974 10.1199 27.5108C9.95421 27.5242 9.78752 27.5045 9.62957 27.4527C9.47162 27.401 9.32558 27.3182 9.19999 27.2094L1.69999 20.9594C1.55926 20.8421 1.44604 20.6952 1.36834 20.5293C1.29064 20.3634 1.25037 20.1824 1.25037 19.9992C1.25037 19.816 1.29064 19.635 1.36834 19.4691C1.44604 19.3032 1.55926 19.1564 1.69999 19.0391L9.19999 12.7891C9.45485 12.5769 9.78355 12.4746 10.1138 12.5048C10.444 12.535 10.7488 12.6951 10.9609 12.95C11.1731 13.2049 11.2753 13.5336 11.2452 13.8638C11.215 14.194 11.0548 14.4988 10.8 14.7109ZM38.3 19.0391L30.8 12.7891C30.6738 12.684 30.5281 12.6048 30.3714 12.5561C30.2146 12.5073 30.0497 12.4899 29.8862 12.5048C29.7227 12.5198 29.5637 12.5668 29.4183 12.6432C29.273 12.7195 29.1441 12.8238 29.0391 12.95C28.8269 13.2049 28.7246 13.5336 28.7548 13.8638C28.785 14.194 28.9451 14.4988 29.2 14.7109L35.5469 20L29.2 25.2891C29.0702 25.3929 28.9625 25.5216 28.8831 25.6677C28.8037 25.8137 28.7542 25.9741 28.7375 26.1394C28.7208 26.3048 28.7373 26.4718 28.7859 26.6308C28.8346 26.7897 28.9144 26.9374 29.0208 27.065C29.1272 27.1927 29.258 27.2979 29.4056 27.3745C29.5531 27.451 29.7144 27.4974 29.8801 27.5108C30.0458 27.5242 30.2125 27.5045 30.3704 27.4527C30.5284 27.401 30.6744 27.3182 30.8 27.2094L38.3 20.9594C38.4407 20.8421 38.5539 20.6952 38.6316 20.5293C38.7093 20.3634 38.7496 20.1824 38.7496 19.9992C38.7496 19.816 38.7093 19.635 38.6316 19.4691C38.5539 19.3032 38.4407 19.1564 38.3 19.0391ZM25.4266 5.075C25.2723 5.01897 25.1084 4.99389 24.9444 5.00119C24.7804 5.00848 24.6195 5.04801 24.4708 5.11751C24.322 5.18701 24.1885 5.28512 24.0777 5.40624C23.9669 5.52737 23.881 5.66913 23.825 5.82343L13.825 33.3234C13.7687 33.4778 13.7435 33.6418 13.7506 33.806C13.7578 33.9701 13.7973 34.1313 13.8668 34.2802C13.9363 34.4291 14.0345 34.5628 14.1558 34.6737C14.277 34.7846 14.4189 34.8706 14.5734 34.9266C14.7103 34.9753 14.8546 35.0002 15 35C15.2567 35 15.5072 34.921 15.7174 34.7736C15.9276 34.6263 16.0874 34.4179 16.175 34.1766L26.175 6.67656C26.231 6.52226 26.2561 6.35843 26.2488 6.19443C26.2415 6.03044 26.202 5.86948 26.1325 5.72076C26.063 5.57204 25.9649 5.43847 25.8437 5.32767C25.7226 5.21687 25.5809 5.13101 25.4266 5.075Z" fill="#292D3D"/>
</svg>
