<svg width="30" height="30" viewBox="0 0 30 30" fill="none" xmlns="http://www.w3.org/2000/svg">
<path d="M12.5 7.5H17.5C17.5 6.83696 17.2366 6.20107 16.7678 5.73223C16.2989 5.26339 15.663 5 15 5C14.337 5 13.7011 5.26339 13.2322 5.73223C12.7634 6.20107 12.5 6.83696 12.5 7.5ZM10 7.5C10 6.17392 10.5268 4.90215 11.4645 3.96447C12.4021 3.02678 13.6739 2.5 15 2.5C16.3261 2.5 17.5979 3.02678 18.5355 3.96447C19.4732 4.90215 20 6.17392 20 7.5H26.25C26.5815 7.5 26.8995 7.6317 27.1339 7.86612C27.3683 8.10054 27.5 8.41848 27.5 8.75C27.5 9.08152 27.3683 9.39946 27.1339 9.63388C26.8995 9.8683 26.5815 10 26.25 10H25.1475L24.04 22.925C23.9335 24.1731 23.3625 25.3357 22.4398 26.1829C21.5172 27.0301 20.3101 27.5001 19.0575 27.5H10.9425C9.68989 27.5001 8.48284 27.0301 7.56019 26.1829C6.63753 25.3357 6.06647 24.1731 5.96 22.925L4.8525 10H3.75C3.41848 10 3.10054 9.8683 2.86612 9.63388C2.6317 9.39946 2.5 9.08152 2.5 8.75C2.5 8.41848 2.6317 8.10054 2.86612 7.86612C3.10054 7.6317 3.41848 7.5 3.75 7.5H10ZM18.75 15C18.75 14.6685 18.6183 14.3505 18.3839 14.1161C18.1495 13.8817 17.8315 13.75 17.5 13.75C17.1685 13.75 16.8505 13.8817 16.6161 14.1161C16.3817 14.3505 16.25 14.6685 16.25 15V20C16.25 20.3315 16.3817 20.6495 16.6161 20.8839C16.8505 21.1183 17.1685 21.25 17.5 21.25C17.8315 21.25 18.1495 21.1183 18.3839 20.8839C18.6183 20.6495 18.75 20.3315 18.75 20V15ZM12.5 13.75C12.8315 13.75 13.1495 13.8817 13.3839 14.1161C13.6183 14.3505 13.75 14.6685 13.75 15V20C13.75 20.3315 13.6183 20.6495 13.3839 20.8839C13.1495 21.1183 12.8315 21.25 12.5 21.25C12.1685 21.25 11.8505 21.1183 11.6161 20.8839C11.3817 20.6495 11.25 20.3315 11.25 20V15C11.25 14.6685 11.3817 14.3505 11.6161 14.1161C11.8505 13.8817 12.1685 13.75 12.5 13.75ZM8.45 22.7125C8.50325 23.3368 8.78896 23.9183 9.25055 24.3419C9.71215 24.7655 10.316 25.0004 10.9425 25H19.0575C19.6836 24.9998 20.2868 24.7646 20.7479 24.341C21.2089 23.9175 21.4943 23.3363 21.5475 22.7125L22.6375 10H7.3625L8.45 22.7125Z" fill="#292D3D"/>
</svg>
