<svg width="25" height="25" viewBox="0 0 25 25" fill="none" xmlns="http://www.w3.org/2000/svg">
<path d="M5.75 7.00012H4.5C3.83696 7.00012 3.20107 7.26351 2.73223 7.73235C2.26339 8.2012 2 8.83708 2 9.50012V20.7501C2 21.4132 2.26339 22.049 2.73223 22.5179C3.20107 22.9867 3.83696 23.2501 4.5 23.2501H15.75C16.413 23.2501 17.0489 22.9867 17.5178 22.5179C17.9866 22.049 18.25 21.4132 18.25 20.7501V19.5001" stroke="#292D3D" stroke-width="2.5" stroke-linecap="round" stroke-linejoin="round"/>
<path d="M17 4.50013L20.75 8.25013M22.4813 6.48138C22.9736 5.98908 23.2501 5.32136 23.2501 4.62513C23.2501 3.9289 22.9736 3.26119 22.4813 2.76888C21.9889 2.27658 21.3212 2 20.625 2C19.9288 2 19.2611 2.27658 18.7688 2.76888L8.25 13.2501V17.0001H12L22.4813 6.48138Z" stroke="#292D3D" stroke-width="2.5" stroke-linecap="round" stroke-linejoin="round"/>
</svg>
