<svg width="36" height="36" viewBox="0 0 36 36" fill="none" xmlns="http://www.w3.org/2000/svg">
<path d="M3 12C3 11.6022 3.15804 11.2206 3.43934 10.9393C3.72064 10.658 4.10218 10.5 4.5 10.5H31.5C31.8978 10.5 32.2794 10.658 32.5607 10.9393C32.842 11.2206 33 11.6022 33 12C33 12.3978 32.842 12.7794 32.5607 13.0607C32.2794 13.342 31.8978 13.5 31.5 13.5H4.5C4.10218 13.5 3.72064 13.342 3.43934 13.0607C3.15804 12.7794 3 12.3978 3 12ZM3 18C3 17.6022 3.15804 17.2206 3.43934 16.9393C3.72064 16.658 4.10218 16.5 4.5 16.5H31.5C31.8978 16.5 32.2794 16.658 32.5607 16.9393C32.842 17.2206 33 17.6022 33 18C33 18.3978 32.842 18.7794 32.5607 19.0607C32.2794 19.342 31.8978 19.5 31.5 19.5H4.5C4.10218 19.5 3.72064 19.342 3.43934 19.0607C3.15804 18.7794 3 18.3978 3 18ZM4.5 22.5C4.10218 22.5 3.72064 22.658 3.43934 22.9393C3.15804 23.2206 3 23.6022 3 24C3 24.3978 3.15804 24.7794 3.43934 25.0607C3.72064 25.342 4.10218 25.5 4.5 25.5H22.5C22.8978 25.5 23.2794 25.342 23.5607 25.0607C23.842 24.7794 24 24.3978 24 24C24 23.6022 23.842 23.2206 23.5607 22.9393C23.2794 22.658 22.8978 22.5 22.5 22.5H4.5Z" fill="white"/>
</svg>
