<svg width="51" height="47" viewBox="0 0 51 47" fill="none" xmlns="http://www.w3.org/2000/svg">
<rect width="51" height="47" rx="14" fill="#8F989F"/>
<g clip-path="url(#clip0_6_65)">
<path d="M29 30C29.0001 30.5046 28.8096 30.9906 28.4665 31.3605C28.1234 31.7305 27.6531 31.9572 27.15 31.995L27 32H25C24.4954 32.0002 24.0094 31.8096 23.6394 31.4665C23.2694 31.1234 23.0428 30.6532 23.005 30.15L23 30H29ZM26 13C27.8149 13 29.559 13.7049 30.8642 14.9661C32.1694 16.2273 32.9337 17.9461 32.996 19.76L33 20V23.764L34.822 27.408C34.9015 27.567 34.9413 27.7429 34.9379 27.9206C34.9346 28.0984 34.8882 28.2727 34.8028 28.4286C34.7174 28.5845 34.5955 28.7174 34.4475 28.8158C34.2994 28.9143 34.1298 28.9754 33.953 28.994L33.838 29H18.162C17.9841 29.0001 17.8089 28.957 17.6514 28.8745C17.4938 28.792 17.3586 28.6725 17.2574 28.5264C17.1561 28.3802 17.0918 28.2116 17.07 28.0351C17.0481 27.8586 17.0694 27.6795 17.132 27.513L17.178 27.408L19 23.764V20C19 18.1435 19.7375 16.363 21.0502 15.0503C22.363 13.7375 24.1435 13 26 13Z" fill="white"/>
</g>
<defs>
<clipPath id="clip0_6_65">
<rect width="24" height="24" fill="white" transform="translate(14 11)"/>
</clipPath>
</defs>
</svg>
