<svg width="28" height="28" viewBox="0 0 28 28" fill="none" xmlns="http://www.w3.org/2000/svg">
<path d="M14 1.5C7.09625 1.5 1.5 7.09625 1.5 14C1.5 20.9037 7.09625 26.5 14 26.5C20.9037 26.5 26.5 20.9037 26.5 14C26.5 7.09625 20.9037 1.5 14 1.5Z" stroke="#292D3D" stroke-width="1.875" stroke-linecap="round" stroke-linejoin="round"/>
<path d="M4.33875 21.9325C4.33875 21.9325 7.125 18.375 14 18.375C20.875 18.375 23.6625 21.9325 23.6625 21.9325M14 14C14.9946 14 15.9484 13.6049 16.6516 12.9017C17.3549 12.1984 17.75 11.2446 17.75 10.25C17.75 9.25544 17.3549 8.30161 16.6516 7.59835C15.9484 6.89509 14.9946 6.5 14 6.5C13.0054 6.5 12.0516 6.89509 11.3483 7.59835C10.6451 8.30161 10.25 9.25544 10.25 10.25C10.25 11.2446 10.6451 12.1984 11.3483 12.9017C12.0516 13.6049 13.0054 14 14 14Z" stroke="#292D3D" stroke-width="1.875" stroke-linecap="round" stroke-linejoin="round"/>
</svg>
