<svg width="36" height="36" viewBox="0 0 36 36" fill="none" xmlns="http://www.w3.org/2000/svg">
<path d="M24.75 3.375C26.5402 3.375 28.2571 4.08616 29.523 5.35203C30.7888 6.6179 31.5 8.33479 31.5 10.125V29.3535C31.4997 29.9818 31.3185 30.5967 30.9781 31.1247C30.6377 31.6527 30.1524 32.0716 29.5803 32.3312C29.0082 32.5908 28.3734 32.6802 27.7519 32.5886C27.1303 32.4971 26.5482 32.2285 26.0752 31.815L18 24.75L9.92475 31.815C9.45176 32.2285 8.8697 32.4971 8.24815 32.5886C7.62659 32.6802 6.99182 32.5908 6.4197 32.3312C5.84758 32.0716 5.36231 31.6527 5.02189 31.1247C4.68146 30.5967 4.50028 29.9818 4.5 29.3535V10.125C4.5 8.33479 5.21116 6.6179 6.47703 5.35203C7.7429 4.08616 9.45979 3.375 11.25 3.375H24.75Z" fill="#292D3D"/>
</svg>
