<svg width="27" height="27" viewBox="0 0 27 27" fill="none" xmlns="http://www.w3.org/2000/svg">
<path d="M25.875 25.875L19.9034 19.9034M19.9034 19.9034C20.9248 18.8819 21.7351 17.6693 22.2879 16.3346C22.8407 15 23.1253 13.5696 23.1253 12.125C23.1253 10.6804 22.8407 9.25 22.2879 7.91538C21.7351 6.58077 20.9248 5.3681 19.9034 4.34663C18.8819 3.32516 17.6692 2.51489 16.3346 1.96207C15 1.40926 13.5696 1.12473 12.125 1.12473C10.6804 1.12473 9.24997 1.40926 7.91535 1.96207C6.58074 2.51489 5.36807 3.32516 4.3466 4.34663C2.28365 6.40959 1.12469 9.20755 1.12469 12.125C1.12469 15.0425 2.28365 17.8404 4.3466 19.9034C6.40956 21.9663 9.20752 23.1253 12.125 23.1253C15.0424 23.1253 17.8404 21.9663 19.9034 19.9034Z" stroke="white" stroke-width="2" stroke-linecap="round" stroke-linejoin="round"/>
</svg>
