<svg width="27" height="30" viewBox="0 0 27 30" fill="none" xmlns="http://www.w3.org/2000/svg">
<path fill-rule="evenodd" clip-rule="evenodd" d="M13.5 18.054L15.696 19.9373L22.419 25.6972C22.5251 25.7878 22.6549 25.8461 22.7931 25.8654C22.9312 25.8846 23.072 25.8639 23.1988 25.8057C23.3256 25.7475 23.433 25.6542 23.5086 25.537C23.5841 25.4197 23.6245 25.2832 23.625 25.1438V6.75C23.625 5.85489 23.2694 4.99645 22.6365 4.36351C22.0036 3.73058 21.1451 3.375 20.25 3.375H6.75C5.85489 3.375 4.99645 3.73058 4.36351 4.36351C3.73058 4.99645 3.375 5.85489 3.375 6.75V25.1438C3.37508 25.2834 3.41517 25.4202 3.49053 25.5378C3.56588 25.6554 3.67334 25.749 3.80021 25.8074C3.92707 25.8659 4.06802 25.8868 4.20639 25.8677C4.34476 25.8486 4.47476 25.7902 4.581 25.6995L11.304 19.9395L13.5 18.054ZM27 6.75C27 4.95979 26.2888 3.2429 25.023 1.97703C23.7571 0.711159 22.0402 0 20.25 0H6.75C4.95979 0 3.2429 0.711159 1.97703 1.97703C0.711159 3.2429 2.36226e-07 4.95979 2.36226e-07 6.75V25.1438C-0.000266153 25.9293 0.224777 26.6984 0.648433 27.3598C1.07209 28.0213 1.67658 28.5474 2.3902 28.8756C3.10383 29.2039 3.89663 29.3206 4.67458 29.2119C5.45252 29.1032 6.18296 28.7736 6.77925 28.2622L13.5 22.5L20.2208 28.26C20.8167 28.7711 21.5468 29.1006 22.3243 29.2095C23.1018 29.3183 23.8943 29.202 24.6078 28.8743C25.3212 28.5466 25.9258 28.0212 26.3497 27.3604C26.7737 26.6996 26.9994 25.9311 27 25.146V6.75Z" fill="#292D3D"/>
</svg>
